<svg width="344" height="84" viewBox="0 0 344 84" fill="none" xmlns="http://www.w3.org/2000/svg">
<path d="M305.342 30.6941C305.831 30.7293 306.233 30.7583 306.628 30.7868C317.048 31.7729 327.468 32.7589 337.886 33.7742C338.894 33.8762 339.884 34.1089 340.883 34.3275C342.865 34.7784 343.293 35.8796 342.935 39.6365C342.518 43.9903 342.162 48.3779 341.619 52.7081C341.153 56.4279 341.309 59.87 341.839 63.2952C342.142 65.2524 342.369 67.2774 342.581 69.2867C342.822 71.5474 342.298 73.2104 341.05 74.0148C339.561 74.9777 338.061 75.9839 336.538 76.6511C335.736 77.0038 334.875 76.6192 334.042 76.6323C332.709 76.6389 331.381 76.6897 330.046 76.7254C321.611 76.9234 313.18 77.0485 304.746 77.3347C295.93 77.6372 287.11 77.9982 278.289 78.4763C271.689 78.8361 265.081 79.1953 258.472 80.0089C252.312 80.7669 246.142 82.096 239.969 83.2344C237.815 83.6362 237.155 82.6795 237.101 78.8049C237.075 76.3105 237.04 73.8301 237.029 71.3368C237.028 70.2517 236.851 69.7404 236.169 69.7353C223.28 69.6708 210.399 69.4896 197.514 69.4694C190.64 69.4575 183.762 69.6066 176.877 69.8578C168.568 70.1676 160.249 70.6087 151.935 71.0941C145.971 71.441 139.994 71.8457 134.023 72.3974C125.704 73.1757 117.375 74.0853 109.044 75.0386C102.399 75.8056 95.7553 76.6607 89.1155 77.5748C82.4678 78.4882 75.8296 79.4904 69.1835 80.4919C67.9892 80.6697 66.7838 81.1106 65.5894 81.2884C65.0603 81.3675 64.5186 81.1818 64.0206 80.9406C62.5895 80.2216 61.1574 79.5172 59.7716 78.6109C58.7792 77.9675 58.4658 76.1561 58.8739 74.0156C59.5508 70.4576 60.2808 66.9327 60.9577 63.3747C61.0881 62.6656 61.1538 61.864 61.1176 61.1576C60.9593 58.1845 60.7279 55.2354 60.5775 52.2628C60.5212 51.1738 60.3666 50.6788 59.6866 50.7617C53.2998 51.5767 46.9072 52.3619 40.5188 53.0888C33.5866 53.8792 26.6665 54.6117 19.7385 55.3437C18.0845 55.5176 16.4357 55.6187 14.7891 55.6905C14.2 55.7213 13.8719 56.0935 13.6126 57.1598C12.8857 60.2011 12.1489 60.8517 10.5017 59.9412C9.12119 59.1818 7.71488 58.4499 6.40166 57.4169C5.51601 56.7225 4.7508 55.5677 3.96823 54.5436C2.98266 53.2556 2.03495 51.8823 1.06831 50.5517C-0.0503181 49.0195 -0.235961 47.5252 0.614993 45.182C2.08023 41.1384 3.6191 37.1733 5.17164 33.2386C5.57871 32.2123 5.69126 31.3114 5.57715 30.1449C5.26476 26.9993 5.00971 23.8286 4.77148 20.6445C4.52747 17.4306 5.09547 15.932 6.85416 15.0765C8.19369 14.4254 9.5369 13.6132 10.8917 13.3004C12.0045 13.0434 13.12 13.5197 14.2418 13.4686C17.7613 13.2679 21.2865 13.097 24.8128 12.6915C36.0934 11.423 47.3755 10.0227 58.6581 8.72509C66.6621 7.80681 74.673 6.90368 82.6733 6.14641C94.171 5.05489 105.671 4.03686 117.164 3.12094C124.438 2.54585 131.707 2.14636 138.974 1.76145C147.603 1.31338 156.237 0.895055 164.863 0.578832C170.572 0.374706 176.276 0.331595 181.98 0.30307C191.547 0.259892 201.116 0.172955 210.671 0.290224C235.082 0.584478 259.425 1.9295 283.669 4.64561C290.457 5.41373 297.201 6.6772 303.958 7.76565C304.704 7.87804 305.444 8.16603 306.166 8.49665C307.24 8.99929 307.706 10.2352 307.476 12.3153C306.886 17.639 306.233 22.9582 305.602 28.2936C305.518 29.0206 305.449 29.7634 305.356 30.7244L305.342 30.6941Z" fill="black"/>
</svg>
