<svg width="35" height="42" viewBox="0 0 35 42" fill="none" xmlns="http://www.w3.org/2000/svg">
    <g opacity="0.2">
        <path d="M17.5012 30.3181C17.1604 30.3187 16.8302 30.2001 16.5678 29.9827L7.81784 22.691C7.52003 22.4435 7.33274 22.0877 7.29719 21.7021C7.26163 21.3165 7.38072 20.9326 7.62826 20.6347C7.87579 20.3369 8.2315 20.1496 8.61712 20.1141C9.00274 20.0785 9.38669 20.1976 9.68451 20.4452L17.5012 26.9785L25.3178 20.6785C25.467 20.5573 25.6387 20.4669 25.8229 20.4123C26.0071 20.3577 26.2004 20.3401 26.3914 20.3604C26.5825 20.3807 26.7677 20.4386 26.9363 20.5307C27.105 20.6229 27.2537 20.7474 27.3741 20.8972C27.5076 21.0472 27.6088 21.2231 27.6712 21.414C27.7336 21.6048 27.7559 21.8065 27.7368 22.0064C27.7176 22.2063 27.6574 22.4 27.5598 22.5756C27.4623 22.7511 27.3295 22.9046 27.1699 23.0264L18.4199 30.0702C18.15 30.2532 17.8265 30.3405 17.5012 30.3181V30.3181Z" fill="white"/>
    </g>
    <g opacity="0.6">
        <path d="M17.5 16.9998C17.2566 17.0002 17.0207 16.9155 16.8333 16.7602L10.5833 11.5518C10.3706 11.375 10.2368 11.121 10.2114 10.8455C10.186 10.5701 10.2711 10.2958 10.4479 10.0831C10.6247 9.87037 10.8788 9.73659 11.1542 9.71119C11.4297 9.6858 11.7039 9.77086 11.9167 9.94767L17.5 14.6143L23.0833 10.1143C23.1899 10.0278 23.3125 9.9632 23.4441 9.92421C23.5757 9.88522 23.7137 9.87262 23.8502 9.88714C23.9867 9.90166 24.119 9.94301 24.2394 10.0088C24.3599 10.0746 24.4661 10.1636 24.5521 10.2706C24.6475 10.3777 24.7197 10.5033 24.7643 10.6397C24.8089 10.776 24.8248 10.9201 24.8111 11.0628C24.7974 11.2056 24.7544 11.344 24.6847 11.4694C24.6151 11.5948 24.5203 11.7044 24.4063 11.7914L18.1563 16.8227C17.9635 16.9534 17.7324 17.0158 17.5 16.9998V16.9998Z" fill="white"/>
    </g>
</svg>
